<?xml version="1.0" standalone="no"?>
<!DOCTYPE svg PUBLIC "-//W3C//DTD SVG 20010904//EN"
 "http://www.w3.org/TR/2001/REC-SVG-20010904/DTD/svg10.dtd">
<svg version="1.0" xmlns="http://www.w3.org/2000/svg"
 width="1536.000000pt" height="1024.000000pt" viewBox="0 0 1536.000000 1024.000000"
 preserveAspectRatio="xMidYMid meet">

<g transform="translate(0.000000,1024.000000) scale(0.100000,-0.100000)"
fill="#000000" stroke="none">
<path d="M7827 8226 c-3 -8 -35 -55 -71 -105 -36 -50 -66 -95 -66 -100 0 -5
57 -114 127 -243 155 -286 264 -503 337 -671 31 -71 56 -130 56 -133 0 -2 -17
13 -38 34 -38 36 -171 229 -227 327 -37 66 -169 263 -196 295 l-21 25 18 -30
c10 -16 76 -131 147 -255 72 -124 144 -247 161 -275 18 -27 56 -93 86 -145 29
-52 64 -110 77 -128 l25 -33 -1049 1 c-725 2 -1106 -2 -1235 -10 -103 -7 -193
-10 -200 -7 -7 3 5 6 28 6 22 1 44 4 47 8 8 7 33 10 137 14 41 1 65 4 53 7
-16 2 -23 11 -24 28 -1 13 -2 30 -3 37 -1 8 -21 12 -61 13 -33 1 -67 2 -75 3
-25 3 40 33 104 48 101 23 138 34 133 39 -5 5 -131 -24 -222 -52 -81 -24 -161
-67 -181 -96 -11 -16 -23 -28 -28 -28 -5 0 0 10 11 23 11 12 30 38 42 57 l22
35 -29 -35 c-17 -19 -64 -78 -106 -130 l-75 -95 252 -6 c139 -3 691 -9 1227
-13 l975 -8 114 66 c62 36 117 66 121 66 4 0 22 -28 40 -62 31 -58 183 -330
433 -770 55 -98 104 -178 108 -178 5 0 26 35 47 78 48 94 164 304 328 594 140
247 244 440 244 454 0 5 -9 20 -20 34 l-21 25 12 -28 c12 -27 3 -42 -242 -407
-140 -208 -255 -373 -257 -366 -2 8 4 80 13 162 49 463 104 1187 89 1171 -10
-9 -109 -221 -206 -437 -60 -135 -115 -249 -122 -255 -7 -5 -34 -86 -61 -180
-26 -93 -49 -172 -51 -174 -2 -2 -13 18 -24 45 -12 27 -28 62 -35 79 -28 62
-77 182 -210 516 -75 189 -145 365 -155 390 -70 168 -280 747 -280 771 0 22
-16 24 -23 4z m-2100 -1462 c-3 -3 -12 -4 -19 -1 -8 3 -5 6 6 6 11 1 17 -2 13
-5z"/>
<path d="M7884 8167 c22 -37 146 -197 152 -197 5 0 -98 141 -140 191 -24 28
-26 29 -12 6z"/>
<path d="M7125 7980 c11 -5 29 -8 40 -8 16 0 15 2 -5 8 -34 11 -60 11 -35 0z"/>
<path d="M7210 7960 c14 -4 34 -8 45 -8 16 0 15 2 -5 8 -14 4 -34 8 -45 8 -16
0 -15 -2 5 -8z"/>
<path d="M8046 7949 c56 -72 176 -219 179 -219 7 0 -166 219 -179 227 -8 5 -8
3 0 -8z"/>
<path d="M7288 7943 c6 -2 18 -2 25 0 6 3 1 5 -13 5 -14 0 -19 -2 -12 -5z"/>
<path d="M7338 7933 c6 -2 18 -2 25 0 6 3 1 5 -13 5 -14 0 -19 -2 -12 -5z"/>
<path d="M7388 7923 c6 -2 18 -2 25 0 6 3 1 5 -13 5 -14 0 -19 -2 -12 -5z"/>
<path d="M7450 7910 c14 -4 34 -8 45 -8 16 0 15 2 -5 8 -14 4 -34 8 -45 8 -16
0 -15 -2 5 -8z"/>
<path d="M7651 7773 c12 -21 29 -45 37 -53 7 -8 0 9 -18 38 -17 28 -34 52 -37
52 -2 0 5 -17 18 -37z"/>
<path d="M8230 7716 c0 -2 8 -10 18 -17 15 -13 16 -12 3 4 -13 16 -21 21 -21
13z"/>
<path d="M7710 7680 c6 -11 13 -20 16 -20 2 0 0 9 -6 20 -6 11 -13 20 -16 20
-2 0 0 -9 6 -20z"/>
<path d="M8294 7638 c16 -21 30 -38 33 -38 8 0 -16 36 -38 55 -19 16 -18 13 5
-17z"/>
<path d="M8380 7536 c0 -2 8 -10 18 -17 15 -13 16 -12 3 4 -13 16 -21 21 -21
13z"/>
<path d="M6158 7273 c78 -2 206 -2 285 0 78 1 14 3 -143 3 -157 0 -221 -2
-142 -3z"/>
<path d="M6643 7273 c26 -2 68 -2 95 0 26 2 4 3 -48 3 -52 0 -74 -1 -47 -3z"/>
<path d="M6823 7273 c9 -2 23 -2 30 0 6 3 -1 5 -18 5 -16 0 -22 -2 -12 -5z"/>
<path d="M7240 7269 c-14 -6 -63 -17 -110 -26 -47 -8 -118 -24 -158 -35 -40
-11 -85 -22 -100 -24 -15 -3 -65 -16 -112 -29 -47 -13 -100 -26 -118 -30 -18
-4 -32 -9 -29 -11 4 -5 66 8 152 31 66 18 197 46 232 49 13 1 25 5 29 8 7 7
44 -2 44 -11 0 -3 -22 -16 -48 -28 -26 -13 -92 -47 -147 -77 -79 -44 -356
-182 -505 -254 l-25 -12 25 6 c30 6 926 454 908 453 -7 0 -24 -5 -38 -10z"/>
<path d="M8731 7154 c0 -11 3 -14 6 -6 3 7 2 16 -1 19 -3 4 -6 -2 -5 -13z"/>
<path d="M8716 7098 c-3 -13 -5 -32 -5 -43 1 -11 5 -2 10 19 10 42 6 62 -5 24z"/>
<path d="M10251 7057 c-6 -8 -8 -16 -5 -20 3 -3 0 -15 -6 -27 -6 -12 -14 -19
-17 -16 -3 3 0 12 7 21 7 9 10 18 7 21 -5 5 -147 -93 -147 -102 0 -7 18 4 57
32 17 13 37 24 43 24 11 0 -105 -133 -235 -270 -128 -135 -338 -387 -520 -625
-38 -49 -130 -167 -205 -261 -74 -93 -173 -219 -220 -279 -335 -431 -390 -494
-585 -679 -117 -110 -124 -115 -169 -117 -30 -2 -52 -9 -63 -21 -19 -22 -113
-20 957 -18 l765 1 23 27 c13 15 37 45 53 67 29 38 29 38 -10 -5 l-41 -45
-780 0 c-429 0 -780 3 -780 6 0 4 14 9 32 13 58 11 998 398 998 411 0 1 -28 2
-62 3 -74 2 -92 12 -20 12 46 0 52 3 70 33 92 153 363 677 451 875 27 59 131
289 233 512 102 223 188 413 191 423 8 20 -6 23 -22 4z"/>
<path d="M6340 7050 l-25 -8 25 -1 c14 0 32 4 40 9 13 9 13 10 0 9 -8 -1 -26
-5 -40 -9z"/>
<path d="M6190 7009 c-47 -15 -71 -26 -53 -23 47 8 181 52 158 52 -11 0 -58
-13 -105 -29z"/>
<path d="M10059 6913 c-13 -16 -12 -17 4 -4 16 13 21 21 13 21 -2 0 -10 -8
-17 -17z"/>
<path d="M6183 6813 c9 -2 23 -2 30 0 6 3 -1 5 -18 5 -16 0 -22 -2 -12 -5z"/>
<path d="M5239 6368 c-57 -73 -131 -169 -166 -213 -147 -187 -163 -208 -163
-215 0 -5 201 -6 446 -2 439 5 446 5 440 -14 -6 -19 29 -402 38 -411 2 -2 26
29 54 69 27 40 73 107 102 150 l52 76 177 57 c218 70 474 161 524 186 20 11
37 17 37 14 0 -5 -167 -225 -347 -460 -29 -38 -140 -185 -245 -325 -280 -372
-467 -594 -486 -576 -2 3 10 17 27 32 28 24 32 33 31 73 -3 69 -2 71 23 71 18
0 19 2 7 10 -8 5 -10 10 -5 10 6 0 2 5 -7 11 -10 5 -18 17 -18 25 0 20 -25 45
-36 36 -5 -4 -2 1 5 11 12 15 12 17 -1 12 -9 -4 -18 1 -22 10 -4 10 -12 15
-22 11 -8 -3 -12 -2 -9 4 3 6 -1 10 -10 10 -9 0 -25 10 -35 23 -16 20 -19 20
-25 5 -5 -13 -12 -15 -30 -8 -13 5 -26 6 -31 2 -4 -4 -4 1 -1 11 10 27 -1 20
-17 -11 -13 -24 -12 -31 9 -71 12 -25 24 -40 27 -35 3 5 3 3 2 -3 -4 -16 246
-533 257 -533 5 0 63 83 130 185 67 102 128 185 135 185 8 0 14 5 14 10 0 10
109 170 392 575 219 312 288 409 309 435 l20 25 -6 -294 -7 -294 -94 -226
c-52 -124 -112 -266 -133 -316 -21 -49 -56 -136 -77 -192 -22 -57 -41 -103
-44 -103 -9 0 -207 185 -236 220 -62 77 -125 139 -129 127 -2 -6 -27 -75 -55
-152 -27 -76 -50 -145 -50 -152 0 -10 21 -13 78 -13 205 0 340 -25 409 -76 21
-15 23 -15 29 2 4 11 54 136 112 279 289 720 446 1077 495 1127 15 16 230 288
377 478 58 74 124 159 147 188 24 29 43 55 43 57 0 3 -100 4 -222 3 l-223 -1
165 -9 c91 -4 179 -6 195 -3 29 4 29 4 10 -11 -32 -25 -110 -63 -204 -99 -127
-49 -373 -154 -398 -171 -17 -10 -23 -11 -23 -2 0 24 84 283 95 290 51 37
-206 -88 -435 -211 -241 -130 -272 -144 -490 -232 l-205 -83 -400 -4 c-220 -2
-398 -1 -395 2 3 3 59 6 123 7 106 1 139 8 105 22 -7 3 7 3 32 1 26 -3 40 -2
33 3 -8 6 16 10 59 11 80 3 91 8 65 27 -16 11 -14 15 25 34 24 11 35 21 26 21
-10 0 -18 5 -18 11 0 5 6 7 13 3 10 -6 10 -4 0 7 -19 20 -16 27 11 22 14 -3
27 1 31 9 5 7 5 10 1 6 -5 -4 -18 -3 -31 2 -23 9 -176 25 -227 23 -15 0 -25 4
-21 9 3 6 -5 5 -17 -2 -18 -9 -21 -9 -15 0 5 8 3 11 -6 8 -8 -3 -22 -1 -31 3
-11 6 -49 1 -105 -12 -127 -30 -124 -29 -117 -16 18 30 27 38 34 27 5 -8 98
13 306 69 164 44 362 96 439 115 77 19 192 48 255 64 63 17 142 36 175 42 33
7 67 16 75 20 8 5 -220 9 -507 10 l-522 0 -102 -132z m401 -1545 c0 -7 3 -13
8 -13 4 0 12 -16 18 -35 6 -19 9 -35 8 -35 -2 0 -20 33 -39 73 -22 44 -28 62
-16 47 11 -14 21 -31 21 -37z"/>
<path d="M7198 6483 c6 -2 18 -2 25 0 6 3 1 5 -13 5 -14 0 -19 -2 -12 -5z"/>
<path d="M5468 6233 c7 -3 16 -2 19 1 4 3 -2 6 -13 5 -11 0 -14 -3 -6 -6z"/>
<path d="M5375 6210 c-13 -5 -14 -9 -5 -9 8 0 24 4 35 9 13 5 14 9 5 9 -8 0
-24 -4 -35 -9z"/>
<path d="M5448 5963 c7 -3 16 -2 19 1 4 3 -2 6 -13 5 -11 0 -14 -3 -6 -6z"/>
<path d="M9777 5722 c-57 -97 -137 -235 -177 -307 -41 -71 -82 -142 -92 -157
-24 -35 -23 -38 15 -38 25 1 62 24 182 116 282 217 376 296 367 308 -5 6 -42
56 -82 111 -80 110 -99 132 -81 97 7 -13 41 -61 77 -108 35 -46 64 -86 64 -89
0 -8 -141 -111 -197 -144 l-52 -30 19 37 c29 57 47 137 55 252 4 58 12 108 17
111 7 4 7 9 0 13 -5 3 -57 -74 -115 -172z"/>
<path d="M7128 5410 c-50 -88 -198 -375 -363 -701 l-133 -266 266 -264 c147
-145 326 -312 397 -371 255 -211 511 -375 825 -532 180 -89 537 -242 545 -234
3 3 -30 60 -72 129 -42 68 -113 187 -158 264 -146 250 -177 295 -284 414 -48
52 -37 26 17 -43 64 -81 84 -126 54 -126 -8 0 -12 -3 -9 -7 4 -3 0 -15 -10
-25 -9 -10 -13 -18 -9 -18 4 0 -3 -10 -16 -22 -13 -13 -23 -29 -23 -37 0 -8
-9 -19 -19 -25 -32 -18 -56 -45 -56 -61 0 -22 -24 -29 -52 -15 -18 9 -16 6 7
-13 16 -14 35 -23 41 -20 7 2 15 -1 20 -8 5 -8 3 -10 -7 -4 -53 30 32 -31 181
-131 185 -123 200 -141 41 -47 -309 182 -583 411 -793 663 -84 101 -238 306
-299 400 -67 101 -243 422 -294 536 l-36 81 36 64 c26 45 35 56 32 36 -2 -15
0 -30 5 -33 4 -3 6 -11 2 -17 -3 -7 4 -1 15 13 11 14 21 21 21 16 0 -5 8 -2
17 5 9 8 14 9 10 2 -11 -18 16 -22 31 -4 8 9 11 10 7 4 -4 -9 2 -12 19 -11 13
1 22 6 19 12 -4 5 3 7 14 4 12 -3 27 -2 34 3 20 12 37 -7 44 -52 4 -22 9 -38
12 -36 2 3 -5 97 -16 209 -12 111 -22 232 -23 268 l-3 65 -37 -65z m-279
-1144 c24 -26 111 -90 111 -82 0 2 26 -11 58 -29 93 -56 89 -52 72 -64 -22
-15 -19 -32 12 -69 28 -32 33 -42 23 -42 -11 0 -320 310 -309 310 6 0 21 -11
33 -24z m1441 -616 c6 -11 8 -20 6 -20 -3 0 -10 9 -16 20 -6 11 -8 20 -6 20 3
0 10 -9 16 -20z"/>
<path d="M10210 5090 c-17 -22 -29 -40 -27 -40 3 0 20 18 37 40 17 22 29 40
27 40 -3 0 -20 -18 -37 -40z"/>
<path d="M7407 5108 c4 -7 36 -56 72 -108 121 -178 326 -488 396 -599 119
-190 305 -472 368 -561 90 -125 247 -317 313 -380 l57 -55 -6 32 c-6 29 -94
236 -117 273 -60 98 -95 160 -135 240 -27 52 -55 103 -64 113 -14 17 -14 18 9
13 83 -17 103 -18 97 -2 -5 13 52 15 476 15 l482 1 25 29 c44 51 351 511 342
511 -5 0 -15 -7 -22 -15 -7 -9 -15 -14 -17 -11 -2 2 -32 -7 -66 -21 -34 -14
-213 -77 -397 -139 -184 -62 -331 -113 -326 -113 4 -1 55 13 113 30 99 28 106
29 124 13 10 -9 25 -14 34 -10 13 4 14 2 5 -14 -6 -11 -7 -19 -3 -18 14 4 53
-13 53 -23 0 -13 -18 -11 -23 4 -2 6 -8 9 -12 5 -10 -9 7 -33 25 -33 11 0 14
-8 12 -28 -2 -17 1 -26 7 -23 5 3 11 2 13 -4 2 -6 18 -12 37 -15 57 -7 47 -15
-20 -16 l-64 -2 65 -8 c72 -10 105 -5 80 11 -13 9 -13 10 0 10 8 0 41 28 73
62 32 35 54 54 48 43 -5 -11 -19 -29 -30 -39 -11 -10 -32 -39 -46 -62 l-26
-44 -479 0 c-305 0 -480 4 -480 10 0 5 -15 17 -32 26 -39 20 -261 179 -277
198 -9 11 -3 15 26 20 39 6 321 97 503 162 76 27 128 39 190 43 47 3 -173 7
-489 9 -316 1 -577 5 -581 7 -10 6 -143 195 -250 353 -45 67 -84 122 -87 122
-2 0 -1 -6 4 -12z"/>
<path d="M8420 5090 c-6 -11 -8 -20 -6 -20 3 0 10 9 16 20 6 11 8 20 6 20 -3
0 -10 -9 -16 -20z"/>
<path d="M8390 5040 c-6 -11 -8 -20 -6 -20 3 0 10 9 16 20 6 11 8 20 6 20 -3
0 -10 -9 -16 -20z"/>
<path d="M8360 4990 c-6 -11 -8 -20 -6 -20 3 0 10 9 16 20 6 11 8 20 6 20 -3
0 -10 -9 -16 -20z"/>
<path d="M8284 4873 c-57 -89 -70 -113 -61 -113 3 0 33 45 66 100 32 55 57
100 55 100 -2 0 -29 -39 -60 -87z"/>
<path d="M10044 4888 l-29 -33 33 29 c17 17 32 31 32 33 0 8 -8 1 -36 -29z"/>
<path d="M7213 4870 c0 -25 2 -35 4 -22 2 12 2 32 0 45 -2 12 -4 2 -4 -23z"/>
<path d="M7223 4785 c0 -22 2 -30 4 -17 2 12 2 30 0 40 -3 9 -5 -1 -4 -23z"/>
<path d="M7232 4690 c0 -19 3 -55 7 -80 11 -61 12 -4 1 65 -6 41 -7 44 -8 15z"/>
<path d="M7798 3928 c4 -123 3 -148 -9 -148 -11 0 -11 -2 1 -10 10 -6 11 -10
3 -10 -7 0 -12 -3 -12 -7 3 -18 -2 -34 -8 -30 -5 3 -9 -7 -10 -23 -1 -19 8
-36 33 -61 34 -33 35 -33 30 -9 -3 14 -8 99 -11 190 -4 91 -11 185 -15 210 -4
25 -5 -20 -2 -102z m6 -264 c4 -11 2 -12 -14 -1 -11 6 -20 15 -20 19 0 12 28
-3 34 -18z"/>
<path d="M8390 3974 c6 -14 8 -29 5 -33 -6 -11 17 -71 28 -71 4 0 5 -5 1 -12
-4 -7 -3 -8 4 -4 7 4 16 -9 24 -35 6 -23 13 -38 15 -32 2 5 -11 47 -28 93 -17
47 -33 93 -36 103 -3 9 -9 17 -14 17 -5 0 -4 -12 1 -26z"/>
</g>
</svg>
